<?xml version="1.0" standalone="no"?>
<!DOCTYPE svg PUBLIC "-//W3C//DTD SVG 20010904//EN"
 "http://www.w3.org/TR/2001/REC-SVG-20010904/DTD/svg10.dtd">
<svg version="1.0" xmlns="http://www.w3.org/2000/svg"
 width="40.000000pt" height="39.000000pt" viewBox="0 0 40.000000 39.000000"
 preserveAspectRatio="xMidYMid meet">

<g transform="translate(0.000000,39.000000) scale(0.100000,-0.100000)"
fill="#000000" stroke="none">
<path d="M210 335 c-7 -8 -10 -25 -6 -40 6 -24 4 -25 -39 -25 l-45 0 0 -45 c0
-44 0 -44 -30 -39 -51 11 -81 -36 -44 -67 12 -10 22 -10 45 -2 l29 11 0 -49 0
-49 44 0 45 0 -6 33 c-6 38 15 62 46 52 25 -8 35 -38 21 -65 -10 -19 -8 -20
40 -20 l50 0 0 115 0 115 -46 0 c-40 0 -45 2 -39 18 4 9 7 26 7 36 -2 35 -49
49 -72 21z"/>
</g>
</svg>
