<?xml version="1.0" standalone="no"?>
<!DOCTYPE svg PUBLIC "-//W3C//DTD SVG 20010904//EN"
 "http://www.w3.org/TR/2001/REC-SVG-20010904/DTD/svg10.dtd">
<svg version="1.0" xmlns="http://www.w3.org/2000/svg"
 width="34.000000pt" height="47.000000pt" viewBox="0 0 34.000000 47.000000"
 preserveAspectRatio="xMidYMid meet">

<g transform="translate(0.000000,47.000000) scale(0.100000,-0.100000)"
fill="#000000" stroke="none">
<path d="M124 431 c-27 -12 -72 -66 -80 -97 -9 -35 2 -69 41 -127 19 -29 35
-62 35 -74 0 -21 5 -23 55 -23 52 0 55 1 55 25 0 14 16 47 36 74 58 81 55 139
-9 200 -28 26 -97 37 -133 22z m125 -50 c43 -41 43 -89 -3 -156 -18 -28 -36
-60 -40 -72 -8 -25 -56 -33 -56 -10 0 6 -18 39 -40 72 -52 78 -54 124 -9 166
24 23 40 29 74 29 34 0 50 -6 74 -29z"/>
<path d="M132 64 c-24 -11 0 -24 44 -24 32 0 44 4 42 13 -5 12 -63 20 -86 11z"/>
</g>
</svg>
