<?xml version="1.0" standalone="no"?>
<!DOCTYPE svg PUBLIC "-//W3C//DTD SVG 20010904//EN"
 "http://www.w3.org/TR/2001/REC-SVG-20010904/DTD/svg10.dtd">
<svg version="1.0" xmlns="http://www.w3.org/2000/svg"
 width="50.000000pt" height="41.000000pt" viewBox="0 0 50.000000 41.000000"
 preserveAspectRatio="xMidYMid meet">

<g transform="translate(0.000000,41.000000) scale(0.100000,-0.100000)"
fill="#fff" stroke="none">
<path d="M75 320 c-13 -15 -16 -28 -10 -57 22 -118 126 -220 243 -239 34 -5
42 -3 56 17 18 27 21 71 6 99 -13 24 -75 37 -95 20 -12 -10 -21 -6 -51 24 -28
28 -34 40 -25 49 16 16 14 59 -5 85 -20 30 -93 31 -119 2z m97 -35 c10 -21 8
-27 -7 -38 -15 -12 -16 -17 -5 -38 18 -35 51 -69 84 -86 27 -14 31 -14 42 2
18 25 51 10 59 -26 10 -46 -5 -54 -66 -34 -75 25 -152 102 -173 174 -17 60
-13 71 32 71 14 0 26 -9 34 -25z"/>
<path d="M230 326 c0 -7 12 -16 28 -19 43 -9 79 -43 86 -82 8 -43 36 -49 36
-7 0 37 -33 88 -69 107 -37 19 -81 20 -81 1z"/>
<path d="M245 269 c-9 -13 54 -74 65 -63 13 13 -11 55 -37 65 -13 5 -25 4 -28
-2z"/>
</g>
</svg>
